<svg width="18" height="20" viewBox="0 0 18 20" fill="none" xmlns="http://www.w3.org/2000/svg">
<g clip-path="url(#clip0_2894_653)">
<path d="M14.3451 18.2549C13.3145 19.2551 12.1774 19.0991 11.0936 18.6276C9.94131 18.1465 8.88791 18.1161 7.67098 18.6276C6.15552 19.2817 5.35121 19.0915 4.43851 18.2549C-0.714426 12.9499 0.0461552 4.86871 5.90263 4.56448C7.32301 4.64054 8.31747 5.34977 9.15411 5.40872C10.3977 5.15583 11.588 4.43138 12.919 4.52645C14.5181 4.65575 15.7141 5.28703 16.5127 6.42219C13.2232 8.3997 14.0028 12.735 17.0242 13.9519C16.4196 15.5396 15.6438 17.1083 14.3432 18.2682L14.3451 18.2549ZM9.04002 4.50743C8.886 2.14964 10.797 0.210164 12.995 0.0200195C13.2974 2.73909 10.5232 4.77364 9.04002 4.50743Z" fill="black"/>
</g>
<defs>
<clipPath id="clip0_2894_653">
<rect width="16.84" height="20" fill="white" transform="translate(0.54541)"/>
</clipPath>
</defs>
</svg>
