<svg width="28" height="18" viewBox="0 0 28 18" fill="none" xmlns="http://www.w3.org/2000/svg">
<path fill-rule="evenodd" clip-rule="evenodd" d="M13.5376 4.4443L15.2324 13.1192L16.7356 4.4443H20.7926L22.2722 13.1192L23.967 4.4443H28L25.0408 17.2307H20.4824L18.7643 7.79529L17.0459 17.2307H12.4637L9.50456 4.4443H13.5376ZM10.4534 0L9.85664 2.75713H8.735C7.327 2.75713 7.01684 2.8284 6.77807 3.80251L6.65869 4.44436H9.49869L8.90177 7.22498H6.06197L3.93786 17.2308H0L2.12411 7.22498H0.358155L0.954875 4.44436H2.69703L2.88801 3.63608C3.50852 0.617959 4.98812 0 8.42464 0H10.4534Z" fill="#10110D"/>
</svg>
