<svg width="21" height="20" viewBox="0 0 21 20" fill="none" xmlns="http://www.w3.org/2000/svg">
<mask id="mask0_43_1256" style="mask-type:alpha" maskUnits="userSpaceOnUse" x="0" y="0" width="21" height="20">
<path d="M20.4945 8.18182H10.9596V12.0455H16.448C15.9364 14.5 13.7968 15.9091 10.9596 15.9091C7.61077 15.9091 4.9131 13.2727 4.9131 10C4.9131 6.72727 7.61077 4.09091 10.9596 4.09091C12.4015 4.09091 13.7038 4.59091 14.7271 5.40909L17.7038 2.5C15.8898 0.954545 13.5643 0 10.9596 0C5.28519 0 0.727051 4.45455 0.727051 10C0.727051 15.5455 5.28519 20 10.9596 20C16.0759 20 20.7271 16.3636 20.7271 10C20.7271 9.40909 20.634 8.77273 20.4945 8.18182Z" fill="white"/>
</mask>
<g mask="url(#mask0_43_1256)">
<path d="M-0.203125 15.909V4.09082L7.70385 9.99991L-0.203125 15.909Z" fill="#FBBC05"/>
</g>
<mask id="mask1_43_1256" style="mask-type:alpha" maskUnits="userSpaceOnUse" x="0" y="0" width="21" height="20">
<path d="M20.4945 8.18182H10.9596V12.0455H16.448C15.9364 14.5 13.7968 15.9091 10.9596 15.9091C7.61077 15.9091 4.9131 13.2727 4.9131 10C4.9131 6.72727 7.61077 4.09091 10.9596 4.09091C12.4015 4.09091 13.7038 4.59091 14.7271 5.40909L17.7038 2.5C15.8898 0.954545 13.5643 0 10.9596 0C5.28519 0 0.727051 4.45455 0.727051 10C0.727051 15.5455 5.28519 20 10.9596 20C16.0759 20 20.7271 16.3636 20.7271 10C20.7271 9.40909 20.634 8.77273 20.4945 8.18182Z" fill="white"/>
</mask>
<g mask="url(#mask1_43_1256)">
<path d="M-0.203125 4.09082L7.70385 9.99991L10.9597 7.22718L22.1225 5.45446V-0.90918H-0.203125V4.09082Z" fill="#EA4335"/>
</g>
<mask id="mask2_43_1256" style="mask-type:alpha" maskUnits="userSpaceOnUse" x="0" y="0" width="21" height="20">
<path d="M20.4945 8.18182H10.9596V12.0455H16.448C15.9364 14.5 13.7968 15.9091 10.9596 15.9091C7.61077 15.9091 4.9131 13.2727 4.9131 10C4.9131 6.72727 7.61077 4.09091 10.9596 4.09091C12.4015 4.09091 13.7038 4.59091 14.7271 5.40909L17.7038 2.5C15.8898 0.954545 13.5643 0 10.9596 0C5.28519 0 0.727051 4.45455 0.727051 10C0.727051 15.5455 5.28519 20 10.9596 20C16.0759 20 20.7271 16.3636 20.7271 10C20.7271 9.40909 20.634 8.77273 20.4945 8.18182Z" fill="white"/>
</mask>
<g mask="url(#mask2_43_1256)">
<path d="M-0.203125 15.909L13.7504 5.45446L17.4248 5.909L22.1225 -0.90918V20.909H-0.203125V15.909Z" fill="#34A853"/>
</g>
<mask id="mask3_43_1256" style="mask-type:alpha" maskUnits="userSpaceOnUse" x="0" y="0" width="21" height="20">
<path d="M20.4945 8.18182H10.9596V12.0455H16.448C15.9364 14.5 13.7968 15.9091 10.9596 15.9091C7.61077 15.9091 4.9131 13.2727 4.9131 10C4.9131 6.72727 7.61077 4.09091 10.9596 4.09091C12.4015 4.09091 13.7038 4.59091 14.7271 5.40909L17.7038 2.5C15.8898 0.954545 13.5643 0 10.9596 0C5.28519 0 0.727051 4.45455 0.727051 10C0.727051 15.5455 5.28519 20 10.9596 20C16.0759 20 20.7271 16.3636 20.7271 10C20.7271 9.40909 20.634 8.77273 20.4945 8.18182Z" fill="white"/>
</mask>
<g mask="url(#mask3_43_1256)">
<path d="M22.1225 20.909L7.70385 9.99991L5.84338 8.63627L22.1225 4.09082V20.909Z" fill="#4285F4"/>
</g>
</svg>
