<svg width="469" height="124" viewBox="0 0 469 124" fill="none" xmlns="http://www.w3.org/2000/svg">
<path fill-rule="evenodd" clip-rule="evenodd" d="M41.2046 54.5108H33.1903L33.2389 54.4541C19.6632 54.4541 13.8104 56.907 11.3818 68.8474L10.6371 72.0854H3.76427L1.41666 83.0949H8.37853L0 122.761H15.5266L23.897 83.0949H31.6377C27.6507 89.0032 25.9045 96.074 25.9045 102.022C25.9045 116.884 36.2826 123.943 49.8339 123.943C63.3203 123.943 71.5803 116.84 75.8899 108.351C75.8767 108.656 75.8668 108.961 75.8601 109.267C75.8601 119.24 81.211 123.943 90.4315 123.943V124C99.0852 124 104.315 120.333 107.553 116.285L106.144 122.761H121.29L132.041 72.1422H116.514L110.848 98.6782C108.961 107.712 104.541 112.221 98.3324 112.221C94.0095 112.221 91.9372 109.736 91.9372 104.936C91.9834 102.811 92.2685 100.699 92.7872 98.6377L98.4538 72.1017H82.9272L79.4099 88.8609C77.7737 76.623 68.1746 70.7903 55.8568 70.7903C47.3557 70.7903 40.915 73.6031 36.2265 77.8039L37.4484 72.1016H26.2527L26.7222 69.5678C27.6613 65.7064 28.8837 65.4231 34.437 65.4231H38.8569L41.2046 54.5108ZM54.7234 82.8359C46.2559 82.8359 41.9249 91.5787 41.9249 101.269C41.9249 108.328 45.0335 111.898 50.8297 111.898C59.2972 111.898 63.6282 103.155 63.6282 93.4568C63.6282 86.4059 60.5196 82.8359 54.7234 82.8359Z" fill="#10110D"/>
<path d="M433.603 54.5189H449.121V122.721H433.603V54.5189Z" fill="#10110D"/>
<path fill-rule="evenodd" clip-rule="evenodd" d="M405.691 81.0468C400.704 81.0468 397.223 83.5806 396.657 88.4782H382.521L374.629 122.721H356.561L349.793 85.3697L343.018 122.721H325.054L313.389 72.1017H329.288L335.967 106.442L341.795 72.1017H357.791L363.717 106.442L370.396 72.1017H386.294L383.993 82.0887C387.446 75.4836 395.54 70.5068 407.002 70.5068C421.493 70.5068 429.871 76.3354 429.58 91.7729L429.394 102.774C429.305 109.364 429.58 118.39 430.519 122.721H415.284L415.098 116.601C411.333 121.968 405.311 123.943 398.098 123.943C388.505 123.943 380.604 118.277 380.604 109.08C380.604 96.6624 394.625 92.5177 414.28 91.1091V89.1339C414.28 83.2082 411.269 81.0387 405.723 81.0387L405.691 81.0468ZM403.748 113.419C409.949 113.419 414.66 110.789 414.66 101.479V100.232C403.837 101.171 396.592 102.588 396.592 107.947C396.592 111.242 399.701 113.403 403.748 113.403V113.419Z" fill="#10110D"/>
<path d="M468.858 54.5189H453.331V122.721H468.858V54.5189Z" fill="#10110D"/>
<path fill-rule="evenodd" clip-rule="evenodd" d="M208.362 78.8773C211.746 74.6435 216.635 71.0735 225.103 71.0735C234.323 71.0735 239.674 75.7768 239.674 85.8392C239.623 88.6895 239.279 91.527 238.646 94.3067L232.632 122.761H217.105L222.772 96.4196C223.277 94.3546 223.549 92.2392 223.581 90.1134C223.581 85.4101 221.509 83.0625 217.186 83.0625C211.074 83.0625 206.557 87.3853 204.671 96.4196L199.004 122.761H183.526L183.535 122.721H173.844C163.879 122.721 159.451 121.215 159.451 114.342C159.511 112.38 159.763 110.427 160.204 108.514L164.64 87.7658C162.874 87.4326 161.079 87.2753 159.281 87.2963C152.7 87.2963 148.086 89.5468 146.58 97.0834L141.124 122.761H125.605L136.323 72.1097H151.38L149.429 81.403C152.983 75.9469 158.715 71.5269 166.429 71.5269H168.097L170.93 58.2589H186.449L183.445 72.0935H194.277L198.008 54.5107H213.535L208.362 78.8773ZM191.943 83.0949H181.09L176.289 105.745C176.118 106.582 176.023 107.433 176.006 108.287C176.006 110.959 177.609 111.525 181.745 111.525H185.91L191.943 83.0949Z" fill="#10110D"/>
<path fill-rule="evenodd" clip-rule="evenodd" d="M313.909 54.6478C320.02 49.1037 324.799 44.0669 326.465 40.1933C326.722 39.5791 327.271 39.1297 327.924 38.9874C328.577 38.8457 329.253 39.0278 329.747 39.4794C332.074 41.6014 334.114 43.882 334.776 47.1007C335.428 50.2725 334.747 54.4026 331.496 60.2594C330.406 62.2959 328.868 63.5649 326.966 64.051C325.413 64.4492 323.713 64.287 321.907 63.715C319.54 62.9656 316.97 61.5048 314.301 59.8088C309.492 64.0546 304.092 68.4826 298.763 72.8546C289.171 80.7254 279.344 88.7789 274.19 94.8237C272.126 97.244 270.804 99.2849 270.702 100.851C270.633 101.94 269.722 102.777 268.649 102.777C268.622 102.777 268.594 102.775 268.569 102.775C268.561 102.775 268.552 102.774 268.544 102.774L268.538 102.774L268.512 102.773C267.38 102.695 266.522 101.717 266.595 100.584C266.778 97.7865 269.061 94.2304 272.852 90.1671C278.296 84.3317 286.844 77.3142 296.155 69.6729C301.138 65.5874 306.185 61.4444 310.725 57.4811C307.108 55.1187 304.029 53.2327 301.455 52.3507C299.133 51.5552 297.272 51.602 295.875 53.141C292.769 67.6373 286.128 74.4167 276.425 73.6119C276.188 74.3392 275.953 75.0652 275.717 75.7893C274.913 78.2865 274.108 80.7754 273.264 83.2292C272.914 84.2605 271.805 84.8232 270.762 84.5474C269.715 84.254 269.075 83.1927 269.307 82.1284C269.917 79.3298 271.941 73.6141 273.649 68.8847C274.343 66.8088 275.064 64.731 275.832 62.6687C273.514 64.6873 271.017 66.5628 268.409 68.3405C268.504 68.8 268.559 69.2607 268.574 69.7245C268.712 73.8668 265.691 77.6381 260.785 80.9435C253.803 85.647 243.005 89.509 233.066 92.6296C231.729 93.051 230.458 93.4509 229.959 93.6451C229.358 94.0574 228.567 94.1299 227.901 93.8086C227.112 93.4333 226.649 92.5946 226.744 91.7373C226.814 91.049 226.936 90.6557 227.599 90.2378C234.315 83.6571 243.214 78.5455 251.827 73.6087C255.666 71.4059 259.544 69.1823 263.251 66.8096C262.087 65.2237 260.012 63.4765 256.616 61.5754C250.557 58.1827 240.402 54.3857 223.855 50.3784C222.749 50.1078 222.071 48.9944 222.34 47.8941C222.61 46.7868 223.738 46.1091 224.824 46.3777C239.278 49.8795 250.049 53.4935 257.244 57.2584C261.744 59.6134 264.868 62.0489 266.668 64.5394C272.884 60.2333 278.376 55.356 281.965 49.2225C282.537 48.2393 283.794 47.9128 284.772 48.4792C285.752 49.046 286.089 50.305 285.527 51.2827C283.892 54.1399 282.479 57.1449 281.207 60.2236C280.06 63 277.661 68.6066 278.235 68.8847C278.25 68.8917 279.805 70.6089 283.976 67.722C287.707 65.1391 290.295 59.8303 291.949 51.8078C292.011 51.4979 292.143 51.2076 292.333 50.9631C295.025 47.4683 298.599 47.1375 302.502 48.3858C306.111 49.5398 310.018 52.0911 313.674 54.4932L313.909 54.6478ZM264.355 70.9835C260.928 73.1321 257.385 75.165 253.878 77.1754C248.736 80.1227 243.489 83.1291 238.721 86.4647C245.589 84.1101 254.599 80.5888 260.014 76.4391C262.281 74.7018 263.928 72.8887 264.355 70.9835ZM328.876 44.3718C326.547 48.0586 322.465 52.3625 317.483 56.9452C319.412 58.1331 321.274 59.1555 322.929 59.7176C324.068 60.1041 325.092 60.2783 325.946 60.0633C326.748 59.8589 327.36 59.2591 327.882 58.2887C330.804 53.0273 331.325 49.7228 330.617 47.3234C330.27 46.1498 329.63 45.2113 328.876 44.3718ZM263.459 56.2715C263.703 56.2715 263.944 56.228 264.189 56.1365C267.213 54.9783 268.952 52.7918 270.614 50.6484C271.204 49.893 271.793 49.1318 272.455 48.4399C275.453 45.3083 280.239 43.505 284.848 41.7331C286.515 41.0921 288.183 40.454 289.784 39.7587C298.755 35.8673 302.953 30.5598 302.791 23.6716C302.764 22.5508 301.849 21.663 300.734 21.663H300.704C300.697 21.663 300.69 21.6631 300.683 21.6633C299.551 21.691 298.65 22.6315 298.674 23.7681C298.799 29.0182 295.386 32.8395 288.146 35.9818C286.596 36.6552 284.982 37.273 283.374 37.8919C278.277 39.8518 273.021 41.9019 269.481 45.5913C268.721 46.3872 268.044 47.2562 267.367 48.123C266.029 49.8454 264.795 51.4991 262.723 52.292C261.66 52.7008 261.131 53.8883 261.537 54.9489C261.849 55.7675 262.63 56.2715 263.459 56.2715ZM254.561 49.2294C257.644 49.2294 262.074 47.3978 266.517 44.595C273.083 40.4535 279.692 34.2247 282.064 29.0803C286.058 20.395 288.508 13.8074 289.459 9.21463C290.141 5.91771 290.032 3.57566 289.282 2.15127C288.679 1.00802 287.697 0.294023 286.448 0.0775958C284.206 -0.299713 282.337 0.730831 280.733 2.47627C279.296 4.03997 278.067 6.18878 276.921 8.20961C276.092 9.67318 275.313 11.0532 274.521 12.0859C270.884 16.8219 266.599 19.7678 262.074 22.8981L260.486 23.9978C260.485 23.9991 260.483 24.0003 260.481 24.0014C259.651 24.5856 258.864 25.0963 258.117 25.579C254.338 28.0416 251.371 29.9984 249.143 36.0018C247.564 40.2426 247.638 44.0588 249.198 46.4685C250.262 48.1172 251.936 49.076 254.051 49.2164C254.224 49.2259 254.388 49.2294 254.561 49.2294ZM285.666 4.12194C285.636 4.11925 285.604 4.11799 285.573 4.11799C284.936 4.11799 284.352 4.60531 283.749 5.26322C282.6 6.51738 281.515 8.44778 280.5 10.2358C279.588 11.8493 278.723 13.3699 277.786 14.5919C273.801 19.7818 269.031 23.0913 264.417 26.2807L262.839 27.3794C261.962 27.9861 261.14 28.5271 260.361 29.0308C257.013 31.2141 254.779 32.6398 253.001 37.4339C252.353 39.1766 252.047 40.8426 252.113 42.2066C252.152 43.0211 252.32 43.7193 252.651 44.2309C253.011 44.7849 253.564 45.059 254.318 45.107C256.682 45.2488 260.387 43.5927 264.224 41.1606C270.114 37.4271 276.278 31.7994 278.322 27.3575C283.307 16.5205 285.136 10.54 285.664 7.24216C285.957 5.41115 285.857 4.53412 285.666 4.12194Z" fill="#10110D"/>
</svg>
