<svg width="21" height="20" viewBox="0 0 21 20" fill="none" xmlns="http://www.w3.org/2000/svg">
<g clip-path="url(#clip0_88181_86185)">
<g clip-path="url(#clip1_88181_86185)">
<path d="M20.0818 5.08784C19.8523 4.20996 19.1739 3.51871 18.3136 3.28369C16.7545 2.85742 10.5 2.85742 10.5 2.85742C10.5 2.85742 4.24545 2.85742 2.68636 3.28369C1.82614 3.51871 1.14773 4.20996 0.918182 5.08784C0.5 6.68 0.5 10.0003 0.5 10.0003C0.5 10.0003 0.5 13.3206 0.918182 14.9127C1.14773 15.7906 1.82614 16.4818 2.68636 16.7169C4.24659 17.1431 10.5 17.1431 10.5 17.1431C10.5 17.1431 16.7545 17.1431 18.3136 16.7169C19.1739 16.4818 19.8523 15.7906 20.0818 14.9127C20.5 13.3217 20.5 10.0003 20.5 10.0003C20.5 10.0003 20.5 6.68 20.0818 5.08784Z" fill="#FF0000"/>
<path d="M8.45459 13.0153L13.6819 10.0003L8.45459 6.98535V13.0153Z" fill="white"/>
</g>
</g>
<defs>
<clipPath id="clip0_88181_86185">
<rect width="20" height="20" fill="white" transform="translate(0.5)"/>
</clipPath>
<clipPath id="clip1_88181_86185">
<rect width="20" height="14.2857" fill="white" transform="translate(0.5 2.85742)"/>
</clipPath>
</defs>
</svg>
